<svg width="128" height="128" viewBox="0 0 128 128" fill="none" xmlns="http://www.w3.org/2000/svg">
  <rect width="128" height="128" rx="32" fill="#EEF6FF"/>
  <circle cx="58" cy="56" r="34" fill="#FFFFFF" stroke="#2F6BFF" stroke-width="9"/>
  <path d="M82 81L107 106" stroke="#2F6BFF" stroke-width="13" stroke-linecap="round"/>
  <rect x="37" y="43" width="42" height="32" rx="13" fill="#DBEAFE"/>
  <path d="M44 38L38 29" stroke="#2F6BFF" stroke-width="5" stroke-linecap="round"/>
  <path d="M72 38L78 29" stroke="#2F6BFF" stroke-width="5" stroke-linecap="round"/>
  <circle cx="50" cy="58" r="4" fill="#1D4ED8"/>
  <circle cx="66" cy="58" r="4" fill="#1D4ED8"/>
  <path d="M52 68C56 71 62 71 66 68" stroke="#1D4ED8" stroke-width="4" stroke-linecap="round"/>
  <path d="M31 91H58" stroke="#93C5FD" stroke-width="6" stroke-linecap="round"/>
  <path d="M25 104H68" stroke="#BFDBFE" stroke-width="6" stroke-linecap="round"/>
  <path d="M93 25L96 32L103 35L96 38L93 45L90 38L83 35L90 32L93 25Z" fill="#60A5FA"/>
</svg>
